# xmcd CD database file
# Copyright (C) 1993-1998 Ti Kan
#
# Track frame offsets:
# 150
# 13327
# 24615
# 38387
# 53220
# 66497
# 78602
# 94427
# 112307
# 162905
# 182532
#
# Disc length: 2597 seconds
#
# Revision: 0
# Processed by: cddbd v1.4b41PL1 Copyright (c) Steve Scherf et al.
# Submitted via: inCDius 1.1b8
#
DISCID=960a230b
DTITLE=Freda Payne - Freda Payne Greatest Hits
DYEAR=1900
DGENRE=
TTITLE0=Band Of Gold
TTITLE1=The Unhooked Generation
TTITLE2=Deeper And Deeper
TTITLE3=Two Wrongs Don't Make A Right
TTITLE4=You Brought The Joy
TTITLE5=Through The Memory Of My mind
TTITLE6=Bring The Boys Home
TTITLE7=Cherish What Is Dear To You
TTITLE8=I'm Not Getting Any Better
TTITLE9=The Road We Didn't Take
TTITLE10=I Shall Not Be Moved
EXTD=
EXTT0=
EXTT1=
EXTT2=
EXTT3=
EXTT4=
EXTT5=
EXTT6=
EXTT7=
EXTT8=
EXTT9=
EXTT10=
PLAYORDER=
